<svg xmlns="http://www.w3.org/2000/svg" width="214" height="34" viewBox="0 0 214 34" role="img" aria-labelledby="title desc">
  <title id="title">Зроблено в Україні</title>
  <desc id="desc">Subtle footer mark with a Ukrainian trident icon and text.</desc>
  <defs>
    <linearGradient id="stroke" x1="0" y1="0" x2="214" y2="34" gradientUnits="userSpaceOnUse">
      <stop stop-color="#34d399" stop-opacity="0.22"/>
      <stop offset="0.48" stop-color="#ffffff" stop-opacity="0.10"/>
      <stop offset="1" stop-color="#38bdf8" stop-opacity="0.16"/>
    </linearGradient>
    <linearGradient id="icon" x1="12" y1="8" x2="26" y2="26" gradientUnits="userSpaceOnUse">
      <stop stop-color="#a7f3d0"/>
      <stop offset="1" stop-color="#34d399"/>
    </linearGradient>
  </defs>

  <rect x="0.5" y="0.5" width="213" height="33" rx="16.5" fill="#ffffff" fill-opacity="0.035"/>
  <rect x="0.5" y="0.5" width="213" height="33" rx="16.5" fill="none" stroke="url(#stroke)"/>

  <g opacity="0.96">
    <circle cx="18" cy="17" r="11" fill="#34d399" fill-opacity="0.08" stroke="#34d399" stroke-opacity="0.28"/>
    <path d="M18 7.8c1.05 2.7 2.18 4.73 3.5 6.33 1.18 1.43 2.1 2.78 2.1 4.7 0 2.48-1.48 4.43-3.58 5.35v-5.1l1.44-1.48-1.43-1.48L18 18.25l-2.03-2.13-1.43 1.48 1.44 1.48v5.1c-2.1-.92-3.58-2.87-3.58-5.35 0-1.92.92-3.27 2.1-4.7 1.32-1.6 2.45-3.63 3.5-6.33Zm0 0v16.7" fill="none" stroke="url(#icon)" stroke-width="1.85" stroke-linecap="round" stroke-linejoin="round"/>
  </g>

  <text x="38" y="21.5" fill="#a1a1aa" font-family="Manrope, Inter, Arial, sans-serif" font-size="13.5" font-weight="700" letter-spacing="0">Зроблено в Україні</text>
  <circle cx="197" cy="17" r="2.2" fill="#34d399" fill-opacity="0.55"/>
</svg>
